<?xml version="1.0" encoding="utf-8"?>
<!-- Generator: Adobe Illustrator 27.3.1, SVG Export Plug-In . SVG Version: 6.00 Build 0)  -->
<svg version="1.1" id="Layer_1" xmlns="http://www.w3.org/2000/svg" xmlns:xlink="http://www.w3.org/1999/xlink" x="0px" y="0px"
	 viewBox="0 0 1920 1080" style="enable-background:new 0 0 1920 1080;" xml:space="preserve">
<style type="text/css">
	.st0{fill:#202020;}
	.st1{fill:#202020;}
	.st2{fill:#202020;}
	.st3{fill:#202020;}
</style>
<g>
	<g>
		<path class="st0" d="M1173,469.3c-23.1,11.6-31.6,33-41.1,52.3c-24,48.3-39.9,99.9-57.2,150.8c-8.4,24.9-19.7,48.8-25,74.8
			c-0.5,2.6-2.6,5-5.6,4.8c-11.3-0.7-23,2.7-33.9-3.4c-22.2-12.3-36.8-28.6-35.6-56.4c1.2-27.7,3.1-54.9,10.1-82.1
			c5.7-22.3,6-46,9-69.1c3.1-23.4,6.9-46.7,10.1-70.1c1.5-10.9,2.5-21.9,3.1-32.9c0.4-7.9,4.7-13,11.6-13.3
			c23.6-1.1,47.2-1.6,68.2,12.8c9.7,6.6,15,15,13.9,26.2c-2.4,23.5-5.9,47-9.2,73.1c8-10.3,10.4-20.5,14.7-29.6
			c9.6-20.1,19.7-40.1,33.2-57.7c19.8-25.8,45.3-33.5,79.4-23.8c22.4,6.4,41.9,17.6,47.3,42.5c2.3,10.7,0.4,22.4,0.4,33.7
			c1.3,0.2,2.5,0.4,3.8,0.6c6.5-11.9,12.9-23.8,19.6-35.6c10.1-17.6,21.7-34.3,41.7-41.4c27.5-9.7,54.5-4,76.1,13.3
			c19,15.2,23.1,38.8,18.9,63.4c-6.4,37.7-16.7,74.6-20.5,112.8c-2.4,24.2-3.9,48.1,0.1,72.3c1.7,10,5.2,19.5,14.6,20.9
			c11.1,1.7,20.9-5.5,27.9-14.3c18-22.4,28.9-48.6,37.4-75.6c2.7-8.6,5.1-8.8,12.5-6.3c18.8,6.5,18.5,6.4,12.7,26.1
			c-8.3,28-19.2,54.3-37.3,77.8c-10.9,14.1-24.1,23-40.3,29.1c-24.8,9.3-48.9,9.9-73-2.5c-30.5-15.7-43.3-41.7-48.3-74.8
			c-7.5-48.8,7.7-94.4,14.9-141.2c2.4-15.5,4.7-31.1,6.6-46.6c0.4-3,2.4-7.9-2-9.4c-4.1-1.4-5.6,3.6-8.1,5.8
			c-9,8-15.1,18.3-20.7,28.7c-19.2,35.2-33.7,72.6-46.8,110.5c-5.6,16.4-14.5,31.5-18.7,48.4c-4.7,18.9-7.6,38.2-12.8,57.1
			c-3.2,11.5-5.7,23-16.7,27.9c-14.4,6.5-25.5-3.4-37.1-10.9c-28.5-18.3-27-46.6-23.9-74c2.1-18.6,3.4-37.3,6.8-55.9
			c3.7-20.5,10-40.3,12.3-61.2C1168.8,521.7,1174.2,496.7,1173,469.3z"/>
		<path class="st0" d="M813.6,255.4c0.1,4.9,0.4,9.8,0.4,14.7c0,205.9,0,411.8,0,617.8c0,4.9-0.3,9.8-0.4,14.7
			c-0.7,0.7-1.4,1.5-2.2,2.2c-9.7,0.2-19.5,0.4-29.2,0.6c-0.8-0.2-1.5-0.3-2.3-0.2c-0.1-14.8-0.4-29.5-0.4-44.3
			c0-196.9,0-393.8,0-590.7c0-4.9,0.2-9.8,0.4-14.7c0.7-0.8,1.4-1.5,2.1-2.3c9.8,0,19.6,0,29.4,0
			C812.1,253.9,812.8,254.6,813.6,255.4z"/>
		<path class="st1" d="M482.3,505.8c-11.4,49.7-22.2,96.4-32.6,143.1c-2.9,13.1-13.4,10-20.6,8.7c-7.7-1.5-2.2-7.9-1.1-12.5
			c4.7-20.6,7.4-41.9,14-61.9c7.7-23.4,11.8-47.6,18.9-71C464,501.9,474.5,511.3,482.3,505.8z"/>
		<path class="st1" d="M532.7,581.3c-11.3-8.5-21.8-16.3-32.2-24.2c-10.5-7.9-2.9-19.1-6.4-31.1c23.2,17.3,44.6,32.7,65.2,49.2
			c5.5,4.4,4.8,10.8-2.2,15.9c-20.1,14.6-41.2,27.8-59.9,44.5c-4.9-18.4-2.5-25.7,12.5-35.9C517.7,594.3,525.8,589.3,532.7,581.3z"
			/>
		<path class="st1" d="M410.3,528.6c8.5,21.9-7.2,30.1-19.8,39.2c-5.8,4.2-10.7,9.1-15.7,13.5c11.4,18.8,46.4,21.5,35.7,56
			c-14.9-11.5-29.4-23-44.2-34.2c-5.5-4.2-11.9-7.4-17.1-12c-6.7-6-6.1-16.5,1.4-20.1c18.7-9,32.8-24,49.1-36
			C402.9,532.7,406.4,531,410.3,528.6z"/>
		<path class="st2" d="M782,253.1c-0.7,0.8-1.4,1.5-2.1,2.3C779.2,253.4,780.1,252.8,782,253.1z"/>
		<path class="st3" d="M813.6,255.4c-0.7-0.7-1.4-1.5-2.2-2.2C813.3,252.8,814,253.5,813.6,255.4z"/>
		<path class="st3" d="M811.4,904.8c0.7-0.7,1.4-1.5,2.2-2.2C814,904.5,813.3,905.2,811.4,904.8z"/>
		<path class="st2" d="M779.8,905.1c0.8-0.1,1.6,0,2.3,0.2c-0.7,0.6-1.4,1.2-2.1,1.8C780,906.5,779.9,905.8,779.8,905.1z"/>
	</g>
</g>
</svg>
